<svg width="14" height="22" viewBox="0 0 14 22" fill="none" xmlns="http://www.w3.org/2000/svg">
<path d="M14 7.5625C13.9656 7.75758 13.9304 7.95309 13.8969 8.14816C13.6534 9.57516 13.087 10.8814 12.4125 12.1421C11.0048 14.7739 9.20436 17.1205 7.25455 19.3557C7.17564 19.4464 7.09588 19.5366 7.00764 19.6371C6.97624 19.6096 6.94867 19.5899 6.92661 19.5654C5.35436 17.7796 3.88012 15.9169 2.60739 13.8974C1.75891 12.5512 0.98297 11.1624 0.491697 9.63789C0.287212 9.00324 0.185394 8.33508 0.0360606 7.68238C0.0271515 7.64156 0.012303 7.60246 0 7.5625C0 7.26172 0 6.96094 0 6.66016C0.0509091 6.31598 0.084 5.96793 0.155273 5.62805C0.387758 4.52031 0.853152 3.51914 1.56036 2.64086C2.48182 1.49617 3.6383 0.695664 5.04467 0.296914C5.54315 0.155547 6.06455 0.0966797 6.57576 0C6.85873 0 7.14127 0 7.42424 0C7.76491 0.0515625 8.10897 0.0855078 8.44539 0.157695C9.53909 0.393164 10.5276 0.864961 11.3947 1.58125C12.5241 2.51453 13.3144 3.68672 13.7077 5.11113C13.8468 5.61559 13.905 6.14281 14 6.65973C14 6.96094 14 7.26172 14 7.5625ZM7 17.7074C7.08612 17.6039 7.16079 17.5201 7.22909 17.4311C7.95158 16.4863 8.69867 15.5598 9.38848 14.5909C10.5513 12.9572 11.5962 11.2496 12.2784 9.34227C12.6692 8.24957 12.8478 7.13539 12.6195 5.9718C12.0044 2.83508 8.97909 0.763984 5.88339 1.41023C3.92848 1.81801 2.54164 2.98676 1.73388 4.83184C1.31642 5.78488 1.17388 6.79465 1.33467 7.83277C1.50479 8.93191 1.90994 9.95199 2.39909 10.9398C3.48855 13.1403 4.91527 15.1121 6.43406 17.0204C6.61436 17.2472 6.8023 17.4681 7 17.7074Z" fill="white"/>
<path d="M2.54541 22.0001C2.54541 21.5794 2.54541 21.1588 2.54541 20.7244C5.51511 20.7244 8.46996 20.7244 11.4545 20.7244C11.4545 21.148 11.4545 21.5739 11.4545 22.0001C8.4848 22.0001 5.51511 22.0001 2.54541 22.0001Z" fill="white"/>
<path d="M10.8173 7.08996C10.8173 9.21562 9.09873 10.9563 7.00001 10.9567C4.90128 10.9567 3.18268 9.21562 3.18225 7.09039C3.18225 4.96473 4.90086 3.22406 6.99958 3.22363C9.09831 3.2232 10.8173 4.9643 10.8173 7.08996ZM7.0017 4.51269C5.60001 4.51184 4.45328 5.67414 4.4554 7.09383C4.45752 8.50492 5.59534 9.66121 6.98813 9.66722C8.39025 9.67367 9.54164 8.51609 9.54504 7.09683C9.54843 5.67672 8.4034 4.51355 7.0017 4.51269Z" fill="white"/>
</svg>
